<svg xmlns="http://www.w3.org/2000/svg" width="166" height="40" viewBox="0 0 166 40" fill="none" ><style><![CDATA[.B{fill:#d7723f}]]></style><mask id="A" maskUnits="userSpaceOnUse" x="0" y="0" width="167" height="40"><path d="M166.123 0H0V40H166.123V0Z" fill="#fff"/></mask><g mask="url(#A)"><path d="M19.161 19.234c.092.102.263.15.435.073.028.077.092.142.168.171.04.012.076.02.116.02.092 0 .187-.041.279-.114.116.163.387.207.67.207.163 0 .331-.012.474-.024l.203-.012c.363-.016.618-.098.813-.346.183.069.666.187 1.184-.541.148-.049.905-.329.774-1.163.112-.106.47-.492.263-.988.028-.106.112-.476-.068-.651-.032-.077-.199-.427-.491-.484-.179-.037-.363.041-.55.236a.6.6 0 0 0-.136.199.63.63 0 0 0-.259.338.58.58 0 0 0-.247.289c-.243-.049-.514.012-.813.175a1.12 1.12 0 0 0-.686-.24h-.004c-.323-.008-.646.146-.897.435-.331.374-.498.915-.451 1.431a.36.36 0 0 0-.199.061c-.108.077-.175.207-.183.358-.14-.008-.267.032-.359.122-.159.183-.116.358-.032.451m3.712-2.63c.347.134.482.524.486.528l.128-.045s-.155-.455-.566-.614c.036-.077.112-.203.243-.228s.371.045.75.532l.108-.085c-.311-.398-.586-.594-.821-.585.036-.069.1-.159.207-.203.168-.065.395 0 .67.187l.076-.114c-.251-.175-.474-.248-.662-.232.012-.012.024-.024.032-.037.151-.159.295-.224.427-.195.251.049.399.411.399.415l.008.016.012.012c.128.11.064.431.032.545l-.008.024.012.024c.219.488-.223.854-.243.87l-.032.028.008.041c.155.817-.654 1.041-.69 1.049l-.024.008-.012.02c-.407.581-.817.581-1.021.533.327-.537.343-1.321.028-1.943a1.61 1.61 0 0 0-.323-.443c.299-.155.566-.191.789-.106m-3.597 2.268c.08-.077.191-.081.243-.081a.14.14 0 0 0 .112-.028c.02-.016.044-.053.04-.102.004-.106.052-.199.124-.248s.168-.053.231 0l.124.102-.016-.163c0-.045.008-.077.04-.11a.28.28 0 0 1 .239-.053c.056.004.243.037.283.171l.048.167.076-.155a.36.36 0 0 1 .371-.203c.124.02.207.11.231.248l.136-.024c-.032-.199-.159-.333-.343-.362a.42.42 0 0 0-.1 0c.04-.211.175-.732.586-.846a1.11 1.11 0 0 1 .191.317c.195.488.116 1.13-.179 1.496l.104.09c.331-.407.415-1.098.199-1.634-.151-.378-.419-.606-.758-.642-.271-.028-.538.094-.754.346a1.65 1.65 0 0 0-.371.882c0 .008 0 .049-.004.077-.016.008-.032.02-.048.037s-.024.029-.036.045c-.032-.468.124-.951.419-1.285.227-.256.51-.394.797-.39.415 0 .777.256 1.005.703.299.594.283 1.338-.04 1.834-.12.244-.522.362-.75.366-.056 0-.128.008-.211.012-.327.029-.929.081-1.041-.134l-.024-.037-.036-.102c-.096.118-.239.244-.383.191-.052-.02-.104-.081-.096-.146l.016-.155-.124.089c-.132.102-.275.073-.343 0-.06-.069-.048-.167.032-.26m1.009-.833a1.49 1.49 0 0 1 .339-.813c.184-.211.411-.321.634-.297.124.012.235.061.335.134-.467.191-.586.813-.614.984a.56.56 0 0 0-.203.146c-.072-.085-.187-.142-.331-.159a.55.55 0 0 0-.163 0m-9.181-.55c-.132.829.622 1.114.774 1.163.339.476.694.585.949.585.164 0 .287-.045.339-.069a1.34 1.34 0 0 0 .375.057 1.13 1.13 0 0 0 .447-.089c.036.041.104.077.235.073s.283-.008.423-.073c.048.053.132.081.243.077.227-.004.443-.02.614-.134.036.028.092.045.163.049.331.016.67.032 1.001-.012.08 0 .136-.041.152-.106s-.012-.138-.08-.183l-.04-.024c-.024-.012-.044-.028-.056-.041-.016-.033-.024-.053-.044-.073l-.02-.016c-.1-.045-.235-.057-.367-.069-.06-.004-.116-.012-.163-.02-.036-.134-.183-.22-.331-.232-.012 0-.032 0-.04-.004s-.012-.016-.02-.024-.008-.016-.016-.024a.3.3 0 0 0-.195-.114c.04-.508-.124-1.02-.451-1.386-.247-.28-.558-.431-.877-.431h-.024a1.13 1.13 0 0 0-.69.24c-.299-.167-.574-.224-.813-.175a.59.59 0 0 0-.247-.289c-.02-.065-.092-.24-.259-.337-.028-.081-.108-.171-.136-.199-.187-.191-.371-.272-.55-.236-.291.061-.459.407-.49.484-.179.175-.096.545-.068.65-.207.492.152.882.263.988m4.426.886l.012.016c.012.02.032.049.06.065.036.024.072.024.116.029.092.008.195.069.199.155v.053l.056.012.223.029c.112.012.227.02.307.053.008.02.012.028.02.037.028.045.068.069.104.089.012.004.024.012.032.02.02.016.028.028.028.028s-.012.008-.036.008c-.323.045-.658.028-.981.012-.068 0-.088-.02-.092-.029l-.028-.106-.08.069c-.144.13-.359.142-.582.146-.064 0-.14-.012-.148-.045l-.02-.102-.084.057c-.108.073-.247.081-.415.09-.076 0-.132-.012-.14-.041l-.02-.077-.072.032a1.03 1.03 0 0 1-.263.077c-.327-.337-.45-.968-.283-1.488a1.09 1.09 0 0 1 .223-.402c.431.118.562.712.594.911h-.096l.004.142.638-.029c.06 0 .116 0 .144.016.064.057.124.089.187.089h.116c.116 0 .223 0 .283.077m-1.762-1.313a.71.71 0 0 1 .339-.134c.187-.024.387.053.562.224.259.248.415.63.411.996-.016-.008-.036-.024-.056-.041-.076-.053-.167-.049-.231-.045l-.407.016c-.028-.199-.159-.821-.614-1.012m.315-.569c.287 0 .566.13.793.386a1.77 1.77 0 0 1 .415 1.281h-.06-.028a1.56 1.56 0 0 0-.454-1.114c-.207-.199-.443-.289-.67-.26-.367.045-.654.313-.79.74-.148.463-.104 1.118.243 1.549a1.35 1.35 0 0 1-.427-.053c-.315-.496-.331-1.236-.036-1.825.227-.447.594-.703 1.005-.703m-3.11-.008c-.036-.114-.096-.435.032-.545l.012-.012.008-.016s.148-.366.399-.419c.132-.029.275.041.427.195.012.012.024.024.032.037-.187-.02-.407.057-.662.232l.076.114c.275-.187.498-.252.666-.187a.39.39 0 0 1 .207.203c-.235-.008-.51.187-.821.585l.108.085c.375-.488.614-.557.75-.533s.207.146.243.228c-.407.159-.558.598-.566.614l.127.045s.136-.394.486-.529c.223-.085.491-.053.79.106a1.61 1.61 0 0 0-.323.443c-.315.622-.299 1.407.024 1.943-.207.049-.618.049-1.021-.529l-.016-.02-.024-.008c-.036-.008-.845-.228-.69-1.049l.008-.041-.032-.024s-.467-.382-.243-.87l.012-.024-.008-.024z" class="B"/><path d="M17.626 18.649a6.2 6.2 0 0 1-.072.736v.029l.012.024c.004.008.148.199.399.289l.08.029.012-.085c0-.028.084-.654.012-1.333.833-.26 1.093-1.118 1.164-1.48.044-.211.032-.223 0-.248l-.032-.024-.036.012c-.706.276-1.037.809-1.192 1.212a2.21 2.21 0 0 0-.223-.565c.682-.073 1.22-.663 1.22-1.378a1.4 1.4 0 0 0-.443-1.021l.335-.423-.638.077-.191-.333-.327.203-.255-.211-.132.268-.574-.228.156.476c-.443.26-.65.74-.65 1.187 0 .573.339 1.195 1.077 1.35.032.041.187.272.259.76-.239-.374-.67-.809-1.396-.935l-.056-.008-.02.053c-.02.057.144.443.319.715.223.35.61.768 1.192.837m.403-.524c.092-.358.351-.992 1.081-1.325-.056.313-.279 1.191-1.108 1.435l.028-.11zm.518-3.492l-.124.155a1.27 1.27 0 0 0-.183-.118l.307-.037zm.291 1.264c0 .557-.363 1.033-.865 1.191.801-1.102.235-2.037-.048-2.394.522.142.913.626.913 1.203zm-.845-1.504l.128.22a1.35 1.35 0 0 0-.339-.089l.211-.13zm-.49.016l.124.106c-.076 0-.132.008-.184.012l.056-.118h.004zm-.275.163c-.072.02-.139.045-.203.073l-.056-.175.259.102zm-.837 1.325c0-.512.299-1.065.949-1.211-.287.35-.869 1.289-.068 2.403-.602-.167-.885-.699-.885-1.191m1.164-1.24c.02 0 .04-.004.06-.004l.1.004c.139.134 1.116 1.179.056 2.476a1.02 1.02 0 0 1-.155.012c-.051 0-.092-.008-.136-.012-1.053-1.301-.064-2.342.072-2.476m-.04 2.614c.028 0 .06.008.092.008.144.207.243.488.299.837l.02.138.008.061c.064.532.024 1.061.004 1.264-.12-.061-.203-.146-.235-.187.044-.276.068-.541.072-.789v-.065l-.004-.22c-.032-.553-.164-.886-.251-1.049m.116 1.089l.08.175h-.008c-.873-.061-1.296-.988-1.416-1.305.797.183 1.184.781 1.344 1.13zM12.997 5.515c-.056-.069-.06-.187-.02-.268a.37.37 0 0 1 .044-.065c-.068.028-.179-.008-.219-.094-.048-.102.016-.236.124-.272-.088.012-.163.061-.243.094s-.183.041-.247-.016-.076-.159-.048-.24.092-.146.147-.211c-.135.033-.255.167-.387.122s-.148-.24-.076-.358.191-.203.271-.321c-.203.098-.415.175-.634.224-.076.016-.168.033-.227-.02-.044-.037-.04-.114 0-.15l-.307.106c-.072.024-.147.049-.219.024s-.128-.11-.088-.175c-.108.069-.231.138-.355.122-.076-.008-.131-.045-.171-.114-.044-.081-.012-.118.056-.175-.124.049-.243.203-.207.346.028.102.148.159.251.146s.199-.065.291-.122c-.04.024.072.146.088.159.072.053.183.069.271.053a.64.64 0 0 0 .147-.057c.016-.008.14-.065.14-.081 0 .069.096.089.164.085l.411-.012c-.096.089-.124.244-.06.362s.207.179.335.142c-.104.118-.02.333.132.378.128.041.271-.024.359-.126-.012.016-.024.037-.032.053s-.02.037-.024.057a.24.24 0 0 0-.016.13.31.31 0 0 0 .044.106.22.22 0 0 0 .08.069c.016.008.032.012.052.012.044 0 .076-.016.108-.045l-.068.122a.5.5 0 0 0-.044.13c-.016.11.076.199.175.215a.27.27 0 0 0 .168-.028c.116-.069.179-.195.231-.317-.088.118-.287.122-.383.012M7.873 4.09c.084-.024.159-.073.235-.118.02-.012.044-.024.064-.012s.02.041.02.061c.012.106.116.183.219.191s.207-.041.295-.098c0 .02-.004.041-.008.057.044.069.128.102.207.106a.78.78 0 0 0 .235-.045c.1-.028.203-.065.259-.154-.052.049-.112.106-.179.094-.076-.012-.124-.106-.112-.183s.064-.142.112-.203a1.79 1.79 0 0 1-.431.191c-.064.016-.128.033-.191.016s-.12-.073-.112-.138c0-.037.024-.069.048-.094a.46.46 0 0 1 .132-.102l-.371.15c-.092.037-.187.077-.287.069s-.203-.073-.215-.171c-.004-.041 0-.077.02-.114l-.048.033c-.064.049-.124.106-.156.179s-.036.167.016.228c.056.069.156.081.243.061m6.21-2.206l-.032.012-.032.012c-.044.016-.092.028-.14.028-.076 0-.155-.049-.167-.122-.012-.049.008-.106-.024-.146s-.088-.041-.136-.033c-.112.024-.343.191-.431.045-.012-.024-.016-.053-.008-.077 0-.016.008-.037.016-.053-.1.085-.199.118-.311.175l-.335.163c-.068.028-.163.049-.215-.02-.064-.081.004-.215.06-.285s.06-.073.14-.126c-.295.118-.55.183-.869.297s-.634.256-.877.492c-.04.037-.076.077-.088.13s.016.118.068.126c-.355.114-.666.358-.865.679-.04.065-.072.163-.016.215.028.024.068.028.104.028a.5.5 0 0 0 .291-.098c-.056-.041-.068-.126-.048-.195s.076-.122.124-.171c.203-.191.439-.346.698-.451-.04.016-.084-.024-.088-.069s.024-.081.052-.118l.08-.089a1.57 1.57 0 0 1 .411-.293 3.75 3.75 0 0 1 .494-.199l.072-.024c.008 0 .064-.012.068-.02-.052.163-.064.402.168.402a.83.83 0 0 0 .622-.289c-.048.073-.092.175-.04.244s.143.061.223.045a1.11 1.11 0 0 0 .494-.264c-.056.077-.112.191-.044.256.008.008.016.016.028.02.04.02.088.016.132.008a.75.75 0 0 0 .184-.061c.076-.037.148-.085.207-.146.004-.004.044-.037.032-.041m-4.768 3.84a3.21 3.21 0 0 1-.877.301c-.092.016-.219.004-.231-.085-.008-.041.016-.081.04-.114a1.19 1.19 0 0 1 .407-.382c-.267.13-.554.224-.845.268-.116.016-.283-.008-.287-.126 0-.049.028-.094.06-.134a1.63 1.63 0 0 1 .403-.358 2.97 2.97 0 0 1-.793.374c-.116.037-.251.061-.347-.012-.068-.049-.076-.159-.036-.22a1.02 1.02 0 0 1-.554.138c-.036 0-.072-.008-.1-.028-.092-.081.016-.24.092-.329-.112.118-.223.228-.307.37-.044.077-.072.187 0 .236.028.016.064.02.096.02.064 0 .136-.008.203-.02l.12-.028a.81.81 0 0 0 .14-.049c.024-.008.116-.037.128-.061-.064.163.112.342.287.346s.335-.098.478-.199c-.06.081 0 .207.088.248s.195.028.295.008c.171-.037.339-.089.502-.159-.064.159-.295.281-.215.435.032.065.108.089.175.102.271.053.566-.012.79-.171.052-.037.104-.077.163-.073.048 0 .088.033.132.053a.31.31 0 0 0 .291-.024c-.167.012-.323-.159-.295-.325zm-3.64 1.139c-.012-.041 0-.085.016-.122.008-.012.02-.024.024-.037-.016 0-.032.016-.044.028s-.032.02-.048.028c-.032.02-.068.037-.1.049a.81.81 0 0 1-.219.057c-.052.004-.1.008-.152 0a.25.25 0 0 1-.076-.012c-.02 0-.044-.004-.06-.02s-.028-.049-.032-.077l.004-.081c0-.008.004-.016.008-.024.012-.024.016-.045.032-.065s.032-.041.052-.057c-.16.106-.343.187-.53.224-.028.004-.064.012-.088-.004-.056-.033-.028-.118.004-.171.156-.248.347-.463.562-.663a3.21 3.21 0 0 0-.622.545c-.076.085-.156.195-.116.305.032.094.144.146.243.138s.191-.057.279-.106a.49.49 0 0 0 .068-.041c.024-.017.044-.02.064-.033-.024.069-.036.146-.032.224 0 .033.012.065.028.094s.044.053.076.053.072 0 .108-.008a1.34 1.34 0 0 0 .148-.045 1.47 1.47 0 0 0 .211-.106.91.91 0 0 0 .136-.11c.008-.008.016-.02.028-.02 0 .012 0 .028-.008.041s-.012.033-.012.049c-.004.037 0 .069.008.102.016.041.044.073.08.093.02.012.032.008.052.012s.04.004.06 0c.072-.008.14-.045.195-.089.175-.13.319-.301.411-.5-.195.142-.407.26-.63.354-.024.012-.116.037-.124-.004m19.191-3.121c.068.057.104.094.056.175-.04.069-.096.106-.172.114-.128.016-.247-.057-.355-.122.04.065-.016.154-.088.175s-.148 0-.219-.024l-.307-.102c.036.037.04.114-.004.15-.06.053-.151.041-.227.02-.219-.053-.431-.126-.634-.224.076.118.199.199.271.321s.056.317-.076.358-.251-.089-.387-.122c.06.065.12.13.152.211s.02.183-.048.24-.168.049-.247.016-.159-.077-.243-.093c.104.041.167.171.124.272-.04.085-.152.118-.231.085a.21.21 0 0 1 .056.073c.04.081.036.199-.02.268-.096.114-.295.106-.383-.012.052.122.116.252.231.317.052.028.112.041.168.028.1-.016.191-.106.175-.215-.004-.045-.024-.089-.044-.13s-.044-.081-.068-.118c.032.024.068.045.108.041.016 0 .036 0 .052-.012.032-.012.06-.037.08-.069a.34.34 0 0 0 .044-.106.24.24 0 0 0-.016-.13l-.024-.057c-.008-.016-.02-.041-.032-.053.088.106.231.167.359.126.151-.045.235-.26.132-.378a.3.3 0 0 0 .335-.142c.064-.114.036-.272-.06-.362l.411.012c.068 0 .16-.016.163-.085 0 .016.124.073.14.081.048.024.096.045.148.057.088.02.199 0 .271-.053.016-.012.128-.134.088-.159.092.057.183.114.291.122s.223-.045.251-.146c.04-.142-.084-.297-.207-.346m1.16.431c-.068.012-.132-.045-.18-.093.052.085.16.122.259.154.076.024.155.049.235.045s.163-.037.207-.106c0-.02-.004-.041-.008-.057.088.057.187.106.291.098s.207-.085.219-.191c0-.02 0-.049.02-.061s.044 0 .064.012c.076.045.148.098.235.118s.187.008.243-.061c.052-.061.048-.154.016-.228s-.092-.13-.155-.179l-.048-.033c.016.037.028.077.02.114-.012.098-.116.167-.215.171s-.195-.033-.287-.069l-.371-.15a.41.41 0 0 1 .132.102c.024.028.044.061.048.094.004.065-.052.122-.112.138s-.128 0-.191-.016c-.151-.045-.295-.106-.431-.191.052.061.104.126.116.203s-.032.171-.112.183" class="B"/><path d="M21.21 1.926a.74.74 0 0 0 .207.146.75.75 0 0 0 .183.061c.044.008.092.012.131-.008.012-.004.02-.012.028-.02.068-.065.012-.183-.044-.256a1.11 1.11 0 0 0 .494.264c.076.02.175.024.223-.045s.008-.171-.04-.244c.155.179.387.289.622.289.227 0 .215-.236.168-.402 0 .008.06.02.068.02l.072.024c.168.057.335.118.495.199.151.077.291.171.411.293l.08.089c.028.033.052.073.052.118s-.048.085-.088.069c.259.106.494.26.698.451.052.049.104.102.124.171s.012.154-.048.195a.53.53 0 0 0 .291.098c.036 0 .076 0 .104-.028.06-.053.024-.146-.016-.215-.199-.321-.51-.565-.865-.679.052-.012.08-.073.068-.126s-.048-.094-.088-.13c-.243-.236-.558-.378-.877-.492s-.646-.199-.949-.346c.08.053.16.106.219.175s.124.203.06.285c-.052.065-.148.049-.215.02a3.24 3.24 0 0 1-.335-.163c-.108-.061-.211-.089-.311-.175.008.016.012.037.016.053.004.028.004.057-.008.077-.088.146-.319-.02-.431-.045-.048-.012-.108-.008-.136.033s-.012.098-.024.146c-.016.073-.096.122-.167.122-.048 0-.096-.012-.14-.028-.012 0-.02-.008-.032-.012s-.028-.016-.032-.012c-.012.004.024.037.032.041m4.726 4.118c.044-.02.084-.049.132-.053.06 0 .116.037.163.073a1.05 1.05 0 0 0 .79.171c.068-.012.143-.041.175-.102.08-.15-.151-.276-.215-.435.163.069.331.122.502.159.1.02.203.033.295-.008s.148-.167.088-.248c.143.102.303.203.479.199s.351-.183.287-.346c.008.024.104.053.128.061a.81.81 0 0 0 .139.049 1.3 1.3 0 0 0 .12.028c.068.012.136.02.199.02.032 0 .068 0 .096-.02.072-.049.044-.159 0-.236-.084-.142-.195-.252-.307-.37.076.085.183.244.092.329-.028.024-.064.028-.1.028a.99.99 0 0 1-.554-.138c.04.065.032.171-.036.22-.096.069-.231.045-.347.012a3.02 3.02 0 0 1-.794-.374 1.71 1.71 0 0 1 .403.358c.032.041.064.085.06.134-.004.118-.171.146-.287.126-.295-.045-.578-.134-.845-.268a1.19 1.19 0 0 1 .407.382c.024.033.044.073.04.114-.016.094-.144.102-.231.085-.307-.057-.602-.159-.877-.301.028.167-.128.337-.295.325a.32.32 0 0 0 .291.024m3.309.949a.41.41 0 0 0 .195.089h.06c.02 0 .036 0 .052-.012.036-.02.064-.053.08-.093a.22.22 0 0 0 .008-.102c0-.016-.008-.033-.012-.049s-.008-.028-.008-.041c.012 0 .02.016.028.02a1.15 1.15 0 0 0 .136.11c.068.041.136.077.211.106a.89.89 0 0 0 .148.045.33.33 0 0 0 .108.008c.036-.004.06-.028.076-.053s.024-.061.028-.094a.61.61 0 0 0-.032-.224c.02.012.044.02.064.033s.048.024.068.041c.088.049.179.098.279.106s.211-.041.243-.138c.036-.11-.04-.22-.116-.305-.183-.203-.395-.39-.622-.545.215.199.407.415.562.663.036.053.06.138.004.171-.024.016-.06.012-.088.004-.187-.041-.371-.118-.53-.224.02.016.036.037.052.057s.024.041.032.065c0 .008.008.016.008.024.008.024.008.057.004.081s-.012.053-.032.073-.036.016-.06.024l-.076.012h-.151a.83.83 0 0 1-.219-.057l-.1-.049c-.016-.008-.032-.02-.048-.028s-.028-.028-.044-.024c.004.012.016.024.024.037.02.037.024.081.016.122s-.1.016-.124.004a3.11 3.11 0 0 1-.63-.354c.092.199.235.374.411.5M17.179 11.42c-.534-.077-.702-.646-.702-.646l-.132.215c.359.516.833.435.833.435m-1.083-8.666a.17.17 0 0 0-.167.171.17.17 0 0 0 .167.171.17.17 0 0 0 .168-.171.17.17 0 0 0-.168-.171zm0 .244c-.04 0-.072-.033-.072-.073s.032-.073.072-.073.072.033.072.073-.032.073-.072.073z" class="B"/><path d="M35.346 13.197c-.056-.085-.148-.13-.243-.122l-2.241.496-.243 1.228-.586.39-.14-3.297 1.188.264 1.32-1.866c.064-.093.068-.211.008-.305-.056-.085-.148-.13-.243-.122l-2.241.496-.243 1.228-5.363 3.578-.1-1.435v-.041c.128.016.255.029.371.029.295 0 .554-.061.774-.207.746-.488.977-1.96 1.017-2.252v-.033l-.072-.045c-.139-.098-.478-.37-.574-.764a1.37 1.37 0 0 1 .355.085 3.55 3.55 0 0 1 .327.146c.307.15.67.325 1.108.325a1.73 1.73 0 0 0 .459-.065c.702-.24.985-.602.997-.614l.076-.102-.877-.077.275-.829-.172.13s-.415.309-.606.382l-.036.012c-.167.053-.355.118-.893-.106-.331-.138-.614-.191-.865-.159-.311.041-.53.236-.726.407s-.427.382-.502.646l-.008.032c-.012.045-.02.089-.024.13v.02c-.008.085-.008.171 0 .252.016.122.052.244.096.358a1.57 1.57 0 0 0 .136.256c-.542 0-1.284-.102-2.285-.423-.726-.232-1.444-.346-2.133-.346-.985 0-1.814.228-2.488.541 0-.02-.004-.045-.012-.065-.02-.053-.052-.106-.08-.155-.08-.13-.155-.268-.18-.423-.024-.175.008-.35.036-.524.036-.248.024-.48-.044-.703-.04-.138-.1-.248-.187-.35l-.104-.126c-.016-.02-.028-.041-.044-.057a.8.8 0 0 0 .128-.419c0-.012.012-.037.028-.053l.012-.02s.024-.037.04-.053c.02-.028.044-.057.06-.093.048-.081.064-.179.056-.281v-.159c.024-.016.048-.033.064-.049.076.171.215.276.391.281s.363-.089.498-.232c.032.045.072.085.132.106.148.057.287-.041.335-.069.124-.085.251-.183.343-.313a.33.33 0 0 0 .136.012c.172-.028.271-.203.331-.333l.012-.028c.028-.065.032-.073.052-.081.128-.065.187-.187.223-.297.016 0 .036-.008.052-.016.06-.028.092-.024.136.02.076.065.179.065.263.024.072.073.164.106.259.089.064-.008.124-.041.172-.085.024.02.052.037.084.049.056.02.092.065.148.146l.024.028c.128.171.263.203.351.207.072 0 .171-.024.275-.126.143.098.263.094.339.077.084-.02.199-.085.283-.272a1.39 1.39 0 0 0 .12-.443c.08-.004.155-.041.215-.106l.056.045.076.061a3.71 3.71 0 0 0 .491.289c.056.028.12.057.195.065.068.008.12-.004.16-.02.02.012.044.033.076.053.466.337.762.496.961.374.024-.016.06-.041.084-.081.275.199.558.394.889.512.068.024.143.028.207.004.056-.016.096-.045.124-.077l.219.159c.247.183.506.374.797.488.172.081.291.049.359 0 .092-.057.136-.154.156-.256.155.138.319.276.574.354h.016c.132.033.223-.008.283-.061.188.154.387.309.618.419.112.053.239.041.331-.033.048-.041.076-.081.092-.122.183.085.359.175.518.293.076.053.275.199.482.069a.29.29 0 0 0 .112-.142 2.86 2.86 0 0 0 .311.236c.092.073.383.272.59.159a.27.27 0 0 0 .132-.187l.199.126c.104.057.207.13.315.203.223.155.455.313.734.378h.016s.028.004.044.004a.27.27 0 0 0 .167-.057c.064-.057.092-.138.084-.244-.04-.398-.291-.683-.518-.943-.59-.663-1.284-1.256-1.954-1.829l-.766-.663a52.7 52.7 0 0 0-5.399-4.212C25.019.725 23.305.094 21.614.009c-.73-.037-1.304.057-1.754.289-1.045.557-.706 1.703-.463 2.541l.02.069c.144.455.163.777.052.959a.4.4 0 0 1-.207.159l-.032-.033c-.431-.504-1.112-.472-1.312-.447l-.195-.142c.024-.317-.044-.61-.199-.846-.052-.077-.112-.15-.175-.211-.008-.012-.008-.016-.008-.024-.008-.118-.06-.224-.136-.297a.5.5 0 0 0-.379-.138.93.93 0 0 0-.343.081l-.028.012c-.076.033-.155.065-.207.049-.012 0-.024-.012-.04-.016.096-.541 0-1.045-.275-1.374-.487-.594-1.444-.671-2.157-.63-1.691.085-3.405.711-5.096 1.866A52.7 52.7 0 0 0 3.28 6.087l-.762.663L.56 8.583c-.223.252-.474.537-.514.935-.02.167.076.24.116.268a.27.27 0 0 0 .144.037c.132 0 .311-.073.526-.22l.371-.236.307-.195c.04-.028.1-.02.124.024.032.061.08.094.116.11.183.089.427-.037.805-.337.036-.028.092-.024.12.012.024.028.048.053.076.069.199.126.399-.016.478-.073.136-.102.287-.183.447-.26.036-.016.08 0 .104.028.016.02.032.041.056.061.092.077.219.089.331.037.211-.098.387-.236.558-.374l.06-.049c.06.053.152.089.283.065h.016c.203-.065.347-.167.478-.276.044-.037.108-.024.132.028s.064.106.12.142c.068.045.187.077.347 0 .303-.118.562-.309.809-.492l.219-.159c.028.033.068.061.124.077a.33.33 0 0 0 .207-.004c.307-.11.574-.285.829-.468.032-.024.076-.02.108.008a.26.26 0 0 0 .12.061c.199.049.471-.11.873-.398l.084-.061c.036.012.092.028.163.02h.028c.211-.061.391-.179.562-.293l.096-.061.076-.061c.012-.012.036-.028.056-.045.044.049.1.081.163.098.032.008.056.037.06.073.032.248.136.541.347.63.068.028.191.057.339-.024.032-.016.064-.012.092.008.088.065.167.085.227.085.092 0 .223-.033.351-.207l.024-.028c.06-.081.092-.122.148-.146.032-.012.06-.028.08-.049.052.045.112.077.172.085.096.016.191-.016.259-.089.084.041.187.041.263-.024.048-.041.08-.045.136-.02.016.008.036.012.052.016.036.106.092.232.223.297.02.008.024.016.052.081l.012.033c.06.13.155.305.327.329.044.008.1.004.163-.024l.02.11.084-.053c.131-.085.251-.232.339-.419.04.207.124.402.231.569-.367.313-.558.821-.479 1.277l.016.098.084-.049c.135-.081.263-.232.359-.419a1.58 1.58 0 0 0 .291.711c-.367.39-.451.854-.331 1.285l.028.094.08-.057c.124-.094.231-.244.311-.431.024.13.056.256.104.37.104.244.084.305.287.459-.036.053-.068.114-.1.175-.65-.28-1.439-.484-2.36-.484-.69 0-1.408.118-2.133.346-1.001.321-1.742.427-2.285.423.052-.081.096-.167.136-.256.048-.114.08-.236.096-.358a.89.89 0 0 0 0-.252v-.016a.68.68 0 0 0-.024-.13l-.008-.032c-.072-.264-.311-.48-.502-.646s-.415-.37-.726-.407c-.247-.033-.53.02-.865.159-.538.224-.726.158-.893.106l-.036-.012c-.191-.073-.602-.378-.606-.382l-.175-.13.275.829-.877.077.076.102s.295.374.997.614a1.73 1.73 0 0 0 .459.065c.439 0 .801-.179 1.108-.325l.327-.146a1.56 1.56 0 0 1 .355-.085c-.096.394-.435.667-.574.764l-.076.045v.033c.044.289.275 1.76 1.021 2.252.219.146.478.207.774.207a2.73 2.73 0 0 0 .355-.024l-.104 1.472-5.355-3.574-.243-1.228-2.241-.492c-.096-.008-.191.037-.243.122-.06.094-.056.216.008.305l1.324 1.866 1.188-.264-.144 3.297-.586-.39-.243-1.228-2.241-.492c-.096-.008-.191.037-.243.122-.06.094-.06.216.008.305l1.32 1.866 1.148-.256c-.817 6.297.104 10.574 1.025 13.062.949 2.557 2.061 3.769 2.241 3.956.303.358 2.285 2.557 5.355 2.557 1.328 0 2.855-.415 4.534-1.573-.526 1.752-1.87 3.817-1.886 3.838l-.072.114h.132c.61-.024 1.093.028 1.459.102l-.227.947c-.032.089-.024.154-.024.154 0 .049.012.154.104.236.14.13.399.167.766.102.167-.028.295-.032.399-.02l.036 1v.057c.004.024.012.049.028.073.12.187.558.285 1.304.285s1.184-.093 1.304-.285c.032-.049.036-.098.028-.13l.036-1c.104-.012.231-.008.399.02.367.065.622.029.766-.102.088-.085.108-.187.104-.232v-.065c-.008-.061-.028-.118-.04-.175l-.068-.289-.08-.337c-.016-.073-.036-.146-.052-.22.363-.09.845-.142 1.455-.122h.132l-.076-.106c-.016-.024-1.364-2.094-1.886-3.846 1.683 1.163 3.214 1.581 4.542 1.581 3.07 0 5.068-2.212 5.375-2.573.052-.049 1.204-1.212 2.217-3.939.921-2.484 1.842-6.765 1.025-13.062l1.148.256 1.32-1.866c.064-.094.068-.211.008-.305m-3.11-2.545l1.727-.382-1.033 1.46-.865-.191.175-.886h-.004zM2.466 11.738l-1.033-1.46 1.727.382.175.886-.865.191h-.004zm-.937 3.22L.497 13.498l1.727.382.175.886-.865.191h-.004zm27.553-1.203l2.464-1.642c.084 1.146.128 2.26.128 3.317l-2.803 1.87c.116-1.069.187-2.236.211-3.545zm-2.739 1.829l1.168-.78c-.052 1.313-.159 2.504-.327 3.622l-.909.606a29.59 29.59 0 0 0 .068-3.448zm-.112 3.915l1.455-.972c-.084 2.037-.351 4.078-.977 6.017a16.67 16.67 0 0 1-1.22 2.878c-.491.911-1.081 1.777-1.731 2.582-.343.419-.702.821-1.077 1.207-.271-.264-.471-.5-.594-.659 1.934-2.46 3.668-6.094 4.147-11.058m-6.372 10.977c-.036-.065-.104-.085-.155-.102l-.028-.008c-.032-.012-.052-.033-.052-.041s.024-.02.036-.029.036-.024.056-.049c.072-.102.072-.22 0-.321-.104-.146-.323-.228-.466-.175-.068.016-.128.049-.183.077-.028.016-.06.029-.088.045-.04.016-.143.053-.211.004a.48.48 0 0 1-.06-.065c-.024-.033-.056-.073-.1-.102-.064-.041-.14-.045-.195-.049l-.79-.049c-.104-.012-.171.024-.215.114-.016.016-.052.016-.104.016-.044 0-.096 0-.143.012-.084.029-.132.094-.176.155a.46.46 0 0 1-.08.093c-.076.057-.179.041-.295.024-.052-.008-.108-.016-.16-.016-.143-.004-.355.065-.463.203-.064.081-.084.175-.052.276.008.02.02.037.032.057.008.012.016.02.02.033.016.037 0 .093-.04.13-.048.049-.12.057-.203.065-.092.012-.195.02-.275.102-.024.029-.04.061-.056.085s-.024.049-.04.061-.036.024-.06.033-.048.02-.068.037c-.148.102-.152.281-.152.443 0 .069 0 .126-.008.171-1.252-1.22-2.532-2.927-3.541-5.159h1.029c.024.045.044.093.068.138.143.321.295.659.578.882.076.081.128.183.184.289.056.098.112.199.183.293.108.13.243.224.375.317.371.256.79.549 1.268.651.116.024.235.037.351.053.144.016.275.029.407.065.096.024.183.061.283.098.08.029.155.061.235.081.299.09.61.102.909.114.506.02 1.029.041 1.535-.093l.072-.02c.247-.069.506-.142.682 0 .068.053.12.142.172.224.092.146.183.301.379.317.048 0 .06.008.06.008.012.012.012.061.012.098v.09c.012.093.084.167.183.191.028.008.056.012.08.012.088 0 .172-.037.219-.102.124-.159.06-.398-.076-.524l-.012-.012s-.028-.024-.032-.037-.004-.029.032-.077c.195-.276.51-.463.845-.496.024 0 .052-.004.076-.004.116-.008.239-.016.343-.085l.1-.065-.104-.053a.96.96 0 0 1-.199-.134c.247-.142.514-.187.809.146-.762 1.183-1.587 2.155-2.4 2.923-.016-.029-.028-.065-.032-.11v-.02c-.016-.029-.036-.053-.052-.073s-.024-.028-.028-.045-.008-.049-.012-.077 0-.053-.008-.077c-.024-.134-.139-.248-.323-.309-.052-.016-.068-.028-.072-.037.012-.057.052-.118.092-.183.076-.118.164-.256.1-.423M15.82 13.551c-2.153.768-3.864.232-4.865-.313l.654-.183c1.966-.386 3.437-.057 4.219.211-.012.093-.012.187-.004.281m.754.085c.12.167.271.305.439.402l.084.049.016-.098a1.32 1.32 0 0 0-.056-.585c.144-.077.287-.159.431-.244.028.077.064.15.104.22l.052.085.06-.081c.056-.073.1-.159.14-.256 1.412.862 2.7 1.163 3.804 1.163a6.19 6.19 0 0 0 3.122-.854c.008-.004.068-.041.116-.069l.777.207c0 .045.004.093.008.114.223 2.346.187 4.468-.044 6.379H9.767c-.239-1.943-.283-4.098-.06-6.484.247-.057.51-.13.794-.211 1.128.683 3.357 1.484 6.077.264zM15.25 8.713c-.004-.024-.012-.045-.02-.065.136.122.295.215.463.26l.092.024-.008-.098c-.016-.207-.12-.439-.287-.638-.112-.13-.283-.272-.466-.346a1.48 1.48 0 0 0 .028-.358l.466.37.132.187.012.386c.016.033.04.065.06.093l.04.053.012.02s.028.041.028.053a.78.78 0 0 0 .128.419l-.044.057c-.036.045-.068.085-.104.126-.08.089-.136.191-.176.309-.128-.102-.279-.207-.335-.236a1.74 1.74 0 0 0-.02-.622m.175-5.269a1.7 1.7 0 0 1-.036.276c-.028.15-.08.301-.147.439-.116.22-.271.394-.427.496a1.5 1.5 0 0 1 .351-.959c.084-.098.168-.179.259-.248m-.104-.252a.77.77 0 0 0-.682.224c-.012-.069.012-.13.032-.183a1 1 0 0 1 .076-.13c.06-.081.14-.15.239-.211.056-.033.116-.045.175-.045a.68.68 0 0 1 .155.02c.056.012.088.053.1.126.012.053.008.089-.032.187-.032 0-.052.004-.068 0m-.403 2.521v-.175a1.08 1.08 0 0 0 .459.374l.088.037.008-.098c.012-.207-.06-.451-.195-.675-.092-.138-.231-.293-.391-.394.179-.114.351-.305.482-.553a1.97 1.97 0 0 0 .151-.439c.048.167.12.321.191.443.128.215.311.394.518.512-.227.415-.251.915-.048 1.305l.048.089.064-.077c.116-.138.199-.346.231-.581.124.264.307.484.53.626-.076.065-.148.154-.215.24a1.35 1.35 0 0 0-.239.959l.012.098.084-.045c.163-.089.319-.272.423-.504.048.289.168.557.343.768-.167.11-.319.264-.427.443-.12.199-.183.435-.183.671v.098l.092-.033c.155-.057.311-.183.439-.358-.016.301.048.598.179.85-.088.037-.171.085-.259.146-.267.191-.459.5-.514.829l-.016.093.092-.012c.163-.024.343-.126.502-.28-.072.35-.036.72.108 1.029a1.79 1.79 0 0 0-.267.415 1.74 1.74 0 0 0-.152.972c-.199-.183-.45-.386-.754-.59a1.37 1.37 0 0 0-.076-.22c-.016-.033-.036-.065-.052-.098.12.045.243.073.371.073.032 0 .064 0 .1-.004l.092-.008-.032-.085c-.072-.187-.243-.378-.454-.512 0 0-.028-.016-.048-.024-.012-.146-.052-.293-.219-.317-.06-.008-.12 0-.179.012h-.036c-.008-.004-.012-.016-.016-.024a1.45 1.45 0 0 1-.072-.366c.092.069.195.126.303.163l.088.028v-.094c0-.207-.092-.447-.243-.655 0 0-.044-.049-.084-.081a.5.5 0 0 1 .048-.106 4.22 4.22 0 0 1 .283-.415c.016-.02.04-.041.064-.037a.41.41 0 0 1-.203-.276c-.02-.098-.024-.207 0-.305 0-.016.012-.037.024-.041-.072-.02-.12-.089-.14-.163a.65.65 0 0 1-.016-.232v-.037l-.279-.435s-.287-.008-.451-.256c-.004-.008-.008-.012-.012-.016-.004-.049-.012-.094-.02-.142.116.098.243.171.379.215l.092.028v-.098c-.008-.207-.104-.443-.259-.65-.128-.163-.299-.293-.482-.378.088-.175.143-.39.163-.622m-.135-.829c.147.089.283.244.363.362.096.159.155.329.172.484-.136-.077-.255-.195-.343-.333a1.5 1.5 0 0 1-.132-.281c-.012-.049-.024-.098-.04-.146-.008-.028-.016-.061-.02-.089m.793-1.423a1.59 1.59 0 0 1 .486.496c.124.215.199.451.207.659-.183-.106-.347-.264-.459-.455-.132-.224-.215-.484-.231-.699m.726 1.39c.052.15.08.35.072.541-.016.187-.064.358-.139.488-.12-.313-.092-.703.068-1.025m.16-.045a1.64 1.64 0 0 1 .466.516 1.55 1.55 0 0 1 .175.561v.077c-.371-.195-.602-.663-.642-1.159m.63 1.427v.065c0 .033-.004.065-.008.102a1.43 1.43 0 0 1-.092.374c-.072.167-.176.309-.283.398a1.21 1.21 0 0 1 .227-.748c.048-.061.104-.134.159-.187m.702 2.329c0 .244-.044.48-.128.655l-.02-.008c-.148-.293-.195-.65-.132-.992.028-.118.056-.256.104-.366a1.83 1.83 0 0 1 .175.711zm-.072-1.033c.136.102.259.236.343.386.088.163.136.341.143.496-.199-.134-.355-.358-.431-.614-.02-.081-.048-.179-.056-.268zm-.355 4.793c-.052.106-.112.199-.18.272a1.57 1.57 0 0 1 .112-1.024 1.99 1.99 0 0 1 .187-.317 2.04 2.04 0 0 1 .032.272c.004.085 0 .171-.008.26a2.26 2.26 0 0 0-.12.362c-.012.057-.024.118-.032.175m.016.467c-.04-.02-.072-.053-.104-.085.028-.032.056-.065.084-.102 0 .061.008.122.016.183m-1.009-.138a1.63 1.63 0 0 1 .45.541c.108.228.168.472.16.675a1.44 1.44 0 0 1-.546-.825c-.028-.122-.056-.264-.06-.386m.012.671s-.024.012-.036.016c-.024-.012-.048-.02-.076-.032l.036-.098.012-.057c.016.061.04.118.064.171zm.514-.268c-.132-.228-.315-.435-.526-.573 0-.089-.016-.24-.044-.394.319.224.574.443.762.626 0 .012.004.02.008.033l.032.093.048-.041.06.061-.235.13c-.036.02-.068.041-.104.061m.61-.691c.048-.102.088-.216.116-.338.012-.065.024-.13.032-.195a1.7 1.7 0 0 1 .088.252 1.78 1.78 0 0 1 .064.463c-.004.252-.064.492-.16.663a1.56 1.56 0 0 1-.14-.846zm.144-1.171c.12.122.219.268.283.427.064.167.096.337.084.48-.231-.216-.371-.557-.371-.907m-.108-.248a1.58 1.58 0 0 1-.012-1.033 2.04 2.04 0 0 1 .148-.342c.028.081.048.171.064.264.028.15.032.309.02.468-.028.252-.108.484-.219.642zm-.227-1.041c-.12.134-.259.232-.387.281.068-.252.223-.484.435-.634a1.19 1.19 0 0 1 .215-.126c-.016.045-.036.094-.052.134l-.016.041c-.048.106-.116.211-.191.301m-.016-3.529a1.45 1.45 0 0 0 .104.118c.064.122.116.248.151.378.04.163.052.325.044.476l-.008.053v.049c-.004.033-.008.065-.016.098l-.012.008a1.5 1.5 0 0 1-.347-.935c0-.069 0-.146.004-.224 0-.037.008-.069.008-.106.024.02.048.057.072.089m-.032-.317c.16.041.319.118.447.22.14.118.251.264.311.402a.98.98 0 0 1-.502-.272c-.072-.13-.155-.248-.251-.354m.211 1.699c-.02.163-.08.35-.175.52-.096.154-.215.276-.335.35.016-.175.072-.346.16-.488.092-.15.211-.281.351-.378m-1.332 3.399a1.03 1.03 0 0 1 .355.354.88.88 0 0 1-.447-.13c-.036-.024-.072-.049-.104-.073-.088-.049-.215-.203-.207-.195-.028-.033-.052-.065-.072-.098.163.012.335.061.478.146m-.367-.252s.008-.012.012-.02c.024-.037.052-.065.088-.077.02-.008.04-.012.06-.012a.12.12 0 0 1 .052.012c.012.008.024.016.032.028s.012.028.016.045.004.041.008.057v.033c-.08-.024-.175-.049-.259-.065m-.686-4.114c.112.146.187.313.215.463-.152-.069-.291-.183-.399-.329a1.92 1.92 0 0 0-.187-.374c-.012-.028-.02-.057-.028-.085a1.24 1.24 0 0 1 .399.325zm-.144 1.195c.155.069.307.199.403.305.116.142.203.305.235.451-.148-.057-.279-.154-.387-.281s-.199-.297-.255-.472m.722 1.85c.108.146.183.317.207.468-.215-.102-.399-.293-.506-.537-.032-.081-.072-.175-.092-.26.148.077.287.195.391.329zm-.024 1.374c.056.065.124.13.195.183.092.102.171.215.231.337a1.49 1.49 0 0 1 .159.675 1.42 1.42 0 0 1-.546-.825c-.008-.033-.012-.065-.02-.102-.004-.077-.016-.15-.036-.224 0-.02 0-.041-.004-.061.008.008.016.012.024.02m.514 1.947c-.056.171-.136.321-.231.427-.024-.159-.012-.329.036-.484.056-.175.144-.341.243-.459.016.171 0 .35-.048.516zm3.011.252c.61-.264 2.253-.813 4.589-.354l.602.167c-1.232.659-3.01 1.098-5.192.187zm6.376 7.021c-.295 2.195-.849 4.106-1.547 5.744h-6.161v-.171l.415-.898-.395-1.22c.207.032.423.098.634.22.044.179.243.923.574 1.037.12.041.267.057.411.057.287 0 .582-.065.706-.146l.08-.053-.076-.061s-.247-.183-.486-.431c-.319-.338-.311-.968-.295-1.297 0-.029.004-.065.008-.114.044-.476.179-1.919-1.013-2.147a2.06 2.06 0 0 0-.774 0c-.227.041-.443.118-.65.22-.171.085-.335.187-.486.301-.088.065-.187.13-.267.215-.096.102-.112.203-.132.337a2.7 2.7 0 0 0-.028.362c0 .065 0 .15.04.207.084.118.168.09.231.069.012-.004.028-.008.04-.012.02.175-.06.866-.159 1.488l-.024.146.128-.077s.411-.244.949-.313l-.399 1.224.431.898v.171H11.37c-.702-1.638-1.26-3.549-1.563-5.744h15.766l.008-.012zm-3.963 8.371a1.18 1.18 0 0 0 .175.142c-.052.012-.104.012-.159.016-.028 0-.056 0-.08.008-.375.037-.726.244-.941.553-.02.028-.084.118-.048.207.016.041.048.069.072.089l.012.008c.088.077.136.236.06.333-.04.049-.108.057-.16.041-.024-.004-.076-.024-.084-.073v-.073c0-.073 0-.146-.052-.199-.036-.037-.092-.049-.151-.045-.116-.012-.187-.122-.267-.252-.056-.093-.116-.191-.203-.26-.231-.183-.534-.102-.801-.024l-.072.02c-.486.13-.997.11-1.495.089-.291-.012-.594-.024-.877-.11-.076-.024-.151-.053-.227-.081-.096-.037-.195-.073-.295-.102-.14-.037-.287-.053-.427-.069-.112-.012-.227-.024-.335-.049-.451-.098-.861-.378-1.22-.63-.124-.085-.251-.175-.347-.293-.068-.081-.116-.171-.171-.268-.06-.106-.12-.216-.211-.321-.263-.211-.403-.516-.546-.842a.77.77 0 0 0-.04-.081h11.149c-.371.817-.774 1.565-1.2 2.244-.395-.419-.774-.268-1.037-.098l-.076.049.064.061-.008.008zm-4.558-3.704l.399-1.228c.092-.008.188-.008.283 0l.399 1.228-.399.862v.215h-.263v-.203l-.419-.878v.004zm1.798-2.809c-.139-.325-.415-.614-.758-.671-.283-.049-.57.065-.821.211a3.32 3.32 0 0 0-.586.423c-.084.073-.163.151-.251.216-.036.024-.096.073-.14.073s-.064-.061-.068-.102c0-.146.008-.297.028-.443.008-.045.016-.089.032-.126.024-.053.068-.094.112-.13.466-.411 1.061-.687 1.679-.691.247 0 .502.049.71.183.295.195.455.549.51.902s.024.712.008 1.069-.008.724.128 1.053c.12.297.339.553.614.712-.235.085-.49.114-.742.081-.084-.012-.167-.028-.235-.077-.076-.053-.128-.134-.175-.22-.104-.195-.183-.402-.231-.614a.29.29 0 0 0-.048-.122c-.02-.024-.048-.041-.072-.053-.327-.183-.706-.252-1.073-.236a2.88 2.88 0 0 0-1.069.285 9.11 9.11 0 0 0 .14-1.358c0-.024 0-.049.008-.073.02-.041.04-.061.06-.081.259-.24.542-.459.857-.614.231-.114.502-.191.746-.102.14.053.251.159.343.276.267.354.323.829.367 1.272.044 0 .088 0 .132-.004-.028-.354-.06-.715-.203-1.041zm8.381-12.249c.187-.167.383-.342.654-.374.227-.029.487.02.798.15.586.24.797.171.985.11l.04-.012c.128-.049.331-.179.474-.28l-.195.59.777.069c-.128.118-.395.317-.833.467-.598.171-1.061-.053-1.467-.252-.12-.057-.231-.114-.339-.154a1.55 1.55 0 0 0-1.256.065c.096-.138.235-.264.363-.378zm-.462.606c.231-.171.518-.256.813-.252.084.423.411.72.59.854-.132.126-.463.354-1.168.386-.084-.114-.359-.541-.239-.988m-4.342.358c.678 0 1.38.114 2.093.341 2.317.724 3.349.341 3.692.057-.08.476-.327 1.586-.929 1.98-.554.37-1.416.122-2.608-.22l-.853-.24c-2.536-.496-4.278.175-4.793.415l-.319-.15c-.02-.012-.044-.028-.064-.041l-.263-.155-.215-.122a5.75 5.75 0 0 1 4.262-1.862m-2.675.236a.61.61 0 0 0 .04.069c.016.033.036.065.036.098 0 .081-.092.106-.155.081-.104-.045-.211-.134-.295-.211-.104-.098-.359-.455-.14-.561.116-.057.235.077.295.163.08.114.147.24.215.362m.024-7.18c.231-.378.1-.903-.012-1.264l-.02-.065c-.279-.959-.439-1.724.283-2.11.391-.199.905-.281 1.571-.248 1.623.081 3.278.687 4.912 1.805a52.43 52.43 0 0 1 5.363 4.183l.77.667c.662.565 1.344 1.151 1.922 1.801.163.183.319.362.391.569-.151-.065-.295-.163-.447-.268-.112-.077-.223-.154-.335-.22a2.45 2.45 0 0 1-.522-.398c-.08-.069-.199-.069-.275 0a.22.22 0 0 0-.032.285c.04.061.064.094.076.122-.04-.02-.088-.053-.128-.081l-.012-.008c-.128-.085-.255-.195-.383-.301-.104-.085-.207-.179-.311-.252l-.646-.468.387.707a.91.91 0 0 1 .068.159c-.215-.159-.451-.268-.674-.374l-.088-.041c-.076-.041-.168-.033-.239.02-.056.041-.092.106-.092.175-.168-.094-.319-.215-.479-.346-.044-.037-.088-.069-.128-.106l-.16-.126-.104.175-.028.053c-.168-.053-.283-.154-.419-.272-.064-.057-.132-.118-.211-.175-.068-.053-.16-.061-.235-.02a.23.23 0 0 0-.128.203v.012c0 .045 0 .13-.012.179-.275-.11-.502-.281-.746-.455-.132-.098-.263-.195-.407-.285l-.155-.098-.096.159c-.016.024-.024.049-.032.069-.303-.118-.582-.321-.849-.516l-.064-.045c-.04-.033-.16-.122-.283-.041-.04.024-.092.081-.092.191-.088-.037-.243-.126-.518-.325-.048-.033-.084-.061-.096-.065-.124-.089-.219-.069-.295-.041-.036.004-.072-.016-.092-.024-.152-.077-.303-.163-.443-.26-.012-.008-.028-.02-.044-.037-.092-.081-.223-.195-.371-.167a.27.27 0 0 0-.171.122c-.084-.033-.16-.028-.223.012-.108.073-.1.199-.1.244.004.126-.024.26-.092.415-.024.049-.04.065-.04.065s-.028-.004-.076-.045-.12-.114-.227-.093c-.048.008-.112.033-.163.114-.036.049-.06.061-.06.061s-.028-.012-.06-.061l-.02-.028c-.068-.089-.148-.203-.299-.264-.008-.008-.016-.028-.024-.041l-.02-.037a.22.22 0 0 0-.199-.102c-.08.008-.152.057-.183.13l-.008.02c-.036-.041-.092-.085-.175-.093-.064-.008-.116.016-.155.041a.44.44 0 0 0-.371-.041.23.23 0 0 0-.155.016c-.1.049-.132.15-.14.187s-.036.122-.052.138c-.148.073-.195.191-.231.272l-.008.02c-.02.045-.036.073-.052.093-.052-.041-.12-.057-.183-.041-.072.016-.128.065-.155.134-.048.118-.155.203-.283.289-.008-.02-.012-.053-.016-.085a1.04 1.04 0 0 0-.04-.171l-.171-.472-.187.52c-.012.028-.02.053-.032.089-.044.138-.211.264-.315.256-.02 0-.064 0-.092-.122v-.028c-.008-.053-.016-.138-.084-.22l-.148.122c-.044-.22-.195-.451-.219-.508-.044-.098-.016-.276.096-.488s-.175-.728-.175-.728c.395-.484.179-1.098-.016-1.468.136-.065.239-.159.315-.281m-.781.175c.028.037.076.069.175.085.004.008.012.012.016.016.16.191.235.394.299.634a.81.81 0 0 1 .016.402c-.024.102-.08.199-.152.272-.048.049-.092.102-.14.146-.008.008-.024.016-.036.024-.116.061-.315.134-.638.183 0 0-.231.167.698-.028a1.29 1.29 0 0 1 .14.191c.052.085.084.138.06.24 0 .081-.06.183-.084.256-.028.085-.052.171-.048.264.016.224.219.35.275.557.028.11 0 .232-.068.321-.024.033-.104.073-.116.106s.024.093.028.13a.76.76 0 0 1-.016.232c-.02.073-.072.142-.14.163.016.004.024.024.024.041.02.098.016.207 0 .305-.024.13-.096.207-.199.276.024-.004.048.016.064.037.104.13.199.268.283.415.092.154.112.374.116.553a1.77 1.77 0 0 1-.08.561c0 .008-.008.02-.016.024s-.024.004-.036 0c-.06-.012-.12-.02-.179-.012-.199.024-.219.232-.223.399l-.287-.325s-.163.573-.702.646c0 0 .467.081.821-.415.024.041.044.081.068.118.068.106.151.207.243.297s.191.191.303.252c.008.004.02.008.032.012-.746.415-1.252.902-1.515 1.191-.028-.016-.056-.037-.084-.053a3.21 3.21 0 0 0 .016-.203 1.99 1.99 0 0 0-.036-.378 1.08 1.08 0 0 0 .128.11l.08.057.024-.098c.048-.187.02-.435-.072-.679-.088-.215-.231-.411-.403-.557.12-.179.203-.423.235-.695a1.99 1.99 0 0 0 0-.309c.14.183.319.329.518.398l.092.033v-.098c0-.207-.084-.447-.235-.663-.124-.167-.291-.309-.474-.402.092-.195.143-.447.139-.716 0-.077-.012-.159-.024-.236.096.11.207.203.331.268l.088.045.012-.098c.024-.203-.032-.455-.155-.687-.108-.195-.271-.366-.451-.48a1.7 1.7 0 0 0-.048-.541 1.11 1.11 0 0 0-.052-.163c.151.094.319.15.482.159h.092l-.024-.085c-.052-.199-.191-.411-.391-.577-.16-.13-.359-.22-.554-.256-.016-.207-.084-.435-.195-.65a1.7 1.7 0 0 0-.618-.634l-.032-.02c-.008-.228-.088-.484-.227-.724a1.68 1.68 0 0 0-.259-.325c.032.012.06.024.08.028.08.02.263.22.335.289.028.024.076.045.128.057l.012.281s.16-.268.331-.289c0 0 .403.171.451.589.024.207.028.476.072.679a.21.21 0 0 0 .048.11c.028.028.068.041.108.045.247.045.518.016.738-.118.104-.065.223-.159.231-.289.008-.171-.036-.333-.096-.492-.04-.098-.08-.199-.136-.289a.79.79 0 0 0-.092-.134c-.04-.049-.084-.085-.124-.13-.012-.012-.02-.024-.024-.033.195-.016.726-.016 1.037.366M17.79 9.408c.148.085.283.203.387.342.104.15.175.321.199.472-.215-.11-.395-.309-.503-.557-.032-.081-.068-.171-.088-.26m-.411-6.249V3.2c-.004.053-.008.098-.016.146-.032.134.036.224.116.301a.57.57 0 0 0 .06.045c.008.004.02.012.028.016.215.15.387.341.514.573.088.159.195.35.231.529.032.154-.1.289-.219.354-.171.094-.375.118-.562.065-.02-.004-.04-.012-.056-.028-.024-.024-.024-.065-.024-.102 0-.085.004-.163 0-.248l-.008-.11s-.004-.037-.004-.053v-.012c-.016-.374-.187-.675-.518-.919-.06-.045-.148-.094-.255-.057-.024.008-.052.012-.076.012-.012 0-.024 0-.036.004-.056.004-.092-.008-.132-.045-.231-.215-.49-.358-.765-.419.016-.15.016-.272-.028-.411.036-.024.08-.037.116-.065.044-.028.08-.065.116-.098.064-.061.14-.122.223-.126.04 0 .076.008.116.02.032.008.06.008.092.016.076.012.155.012.227-.016.048-.02.092-.053.144-.041.04.008.068.041.104.065s.076.028.112.041c.064.02.116 0 .163-.02.012-.004.028-.012.04-.016.215.122.315.301.303.553m-1.029-.947c.151.065.311.004.311.004l.024-.012a.73.73 0 0 1 .251-.069c.076 0 .144.016.183.057.032.028.056.069.064.098.004.016.02.065 0 .114a.42.42 0 0 1-.04.049c-.068.061-.167.077-.247.033-.064-.037-.108-.098-.179-.114s-.112.037-.175.065c-.1.045-.211-.008-.319-.02-.211-.024-.351.106-.486.256-.048.057-.124.118-.199.102-.036-.008-.056-.037-.084-.057-.036-.028-.076-.045-.124-.053-.084-.008-.168.008-.251-.024-.128-.053-.108-.195-.036-.293.096-.126.331-.041.439.033.024.016.044.033.072.033s.056-.012.076-.028l.048-.045c.319-.48.514-.187.67-.118m-2.341 4.919a.27.27 0 0 0-.124.114.52.52 0 0 1-.04-.073l-.008-.024a.47.47 0 0 0-.227-.272c-.02-.016-.044-.102-.056-.138s-.04-.138-.139-.187c-.036-.016-.088-.033-.156-.016a.44.44 0 0 0-.371.041c-.04-.024-.092-.045-.155-.041-.08.008-.136.053-.175.093l-.008-.02c-.032-.073-.104-.126-.183-.13s-.155.033-.199.102l-.02.037s-.016.028-.024.041c-.147.061-.231.175-.299.264l-.02.028c-.036.045-.056.057-.056.061s-.028-.016-.068-.069c-.02-.024-.076-.106-.175-.114-.044 0-.116.004-.183.073-.056.057-.092.069-.096.069-.056-.02-.148-.264-.144-.48 0-.049.008-.175-.1-.244-.064-.041-.136-.045-.223-.012-.04-.065-.1-.11-.171-.122-.152-.028-.279.081-.371.167-.016.016-.032.028-.036.033l-.092.061c-.148.098-.291.191-.439.236-.088-.028-.187-.049-.299.033l-.112.077c-.171.122-.307.211-.407.268-.044.024-.104.004-.12-.045-.012-.037-.04-.073-.088-.102-.124-.069-.235.02-.279.053l-.056.041c-.271.195-.546.398-.853.516-.008-.02-.016-.045-.032-.069l-.096-.159-.156.098a5.99 5.99 0 0 0-.403.285c-.243.179-.471.346-.742.451-.012-.053-.016-.134-.016-.183v-.012a.23.23 0 0 0-.128-.203c-.076-.041-.167-.033-.235.02-.076.057-.144.118-.211.175-.136.118-.251.224-.419.276-.004-.008-.008-.02-.012-.028-.016-.037-.028-.081-.044-.118-.02-.053-.088-.069-.132-.037-.032.024-.064.053-.096.077-.076.053-.148.114-.223.171-.132.106-.259.207-.399.285 0-.069-.036-.134-.092-.175-.068-.053-.163-.061-.239-.02l-.088.041c-.227.106-.459.211-.67.37.008-.049.032-.102.06-.15.028-.102.064-.183.08-.276.02-.13-.112-.122-.195-.069l-.156.098c-.036.024-.08.065-.159.13-.311.272-.534.443-.666.512.012-.033.036-.065.08-.126.06-.089.044-.207-.036-.281s-.195-.073-.283 0c-.227.22-.467.37-.722.524-.124.077-.255.154-.387.248-.06.041-.132.081-.191.11.068-.211.227-.39.395-.581.57-.646 1.256-1.232 1.918-1.797l.77-.667C5.202 4.867 6.956 3.497 8.87 2.188 10.505 1.07 12.16.464 13.783.383c.518-.028 1.451-.004 1.874.504.203.244.275.667.195 1.098-.195-.024-.367.26-.367.26a.57.57 0 0 0-.331-.077c-.195.028-.291.22-.239.411v.016c.012.028.02.053.028.077-.004.012-.012.02-.024.028s-.02.012-.028.02l-.044.033c-.024.02-.052.041-.076.065a1.31 1.31 0 0 0-.14.122.75.75 0 0 0-.175.772c0 .016.008.028.012.049.096.264.06-.171.299-.289.203-.098.383-.114.518-.102-.08.065-.159.142-.235.232a1.66 1.66 0 0 0-.379 1.053c-.016 0-.028.008-.044.012-.315.073-.594.362-.666.695l-.02.089h.088c.143-.012.267-.085.355-.15a1.72 1.72 0 0 0 .044 1.061c-.227.203-.379.484-.439.776m.427-.179c-.012.045-.02.085-.032.122a1.13 1.13 0 0 1-.223.382.14.14 0 0 1-.036.016c-.028-.329.092-.679.323-.935-.024.122-.028.252-.032.37v.041m-.016-1.842a.71.71 0 0 1-.267.167c.08-.211.259-.394.463-.468v.008a.64.64 0 0 0-.088.154c-.032.049-.072.093-.112.138m.136.199c.028-.089.06-.187.1-.276.012-.02.028-.045.04-.065a.52.52 0 0 1 .012.041 1.09 1.09 0 0 0 .048.163 1.89 1.89 0 0 1 .048.516 1.57 1.57 0 0 1-.155.577l-.044.057-.008-.016a1.63 1.63 0 0 1-.04-.996zm.02 1.655c.032-.142.044-.281.04-.407l.008-.008a1.53 1.53 0 0 0 .04.061c.02.057.044.114.068.163.036.073.076.142.12.207.024.069.048.134.064.203a1.54 1.54 0 0 1 .004.618l-.084-.016c-.155-.232-.247-.52-.255-.821m.132 1.069a1.75 1.75 0 0 0-.04.354l-.048.175c-.068.171-.168.317-.271.415-.024-.341.112-.699.363-.955m.275 2.134c-.052.179-.135.333-.231.439a1.28 1.28 0 0 1 .271-.988 1.46 1.46 0 0 1-.04.549zm.14-.728l-.044-.053-.012-.02a1.58 1.58 0 0 1-.271-.886V8.42c.024-.102.04-.211.04-.321a1.81 1.81 0 0 1 .295.642c.052.248.044.496-.008.691zm.167 1.232c-.116-.272-.148-.602-.1-.935a1.79 1.79 0 0 1 .327.638c.044.163.056.333.044.5v.032l-.016.094a.36.36 0 0 1-.008.065c-.088-.089-.176-.228-.247-.394zm.132.854c.036-.073.076-.163.12-.232.008.065.016.13.028.195a1.39 1.39 0 0 1-.016.341c-.036.187-.104.35-.195.472-.064-.248-.044-.528.064-.777zM7.271 10.36a3.42 3.42 0 0 0-.339.155c-.407.199-.869.423-1.467.252a2.4 2.4 0 0 1-.833-.468l.778-.069-.195-.59c.144.102.343.232.474.281l.04.012c.187.061.403.13.985-.11.311-.13.57-.179.797-.15.271.033.467.207.654.374.128.114.267.236.363.378-.375-.195-.837-.22-1.256-.065zm.542.037c.295 0 .582.081.813.252.12.447-.155.874-.239.988-.706-.033-1.037-.26-1.168-.386.179-.134.506-.427.59-.854m.307 2.988c-.602-.394-.849-1.504-.929-1.98.343.285 1.372.667 3.692-.057.714-.228 1.415-.341 2.093-.341a5.77 5.77 0 0 1 2.301.472c-.132.317-.14.675-.024.976l.036.094.072-.069c.143-.134.251-.358.307-.614a1.54 1.54 0 0 0 .51.646c-.128.134-.239.333-.311.553-.008.024-.012.045-.016.069-.805-.277-2.293-.598-4.274-.207-.279.073-.542.15-.794.224-.02.004-.044.012-.064.016-1.192.341-2.054.59-2.608.22m.937 2.195c-.04 1.179-.016 2.333.076 3.452l-.913-.61a33.11 33.11 0 0 1-.327-3.622l1.164.776v.004zm.116 3.923c.299 3.049 1.093 5.838 2.357 8.269a17.8 17.8 0 0 0 1.794 2.789c-.124.154-.319.382-.574.634-.379-.386-.738-.789-1.081-1.212-.654-.801-1.24-1.671-1.731-2.578-.498-.923-.909-1.886-1.22-2.878-.618-1.931-.889-3.956-.973-5.984l1.435.959h-.008zm-5.315-7.391l2.46 1.643a39.74 39.74 0 0 0 .211 3.545l-2.803-1.87c0-1.057.048-2.171.128-3.317M6.067 31.89s-1.208-1.207-2.189-3.87c-.893-2.427-1.786-6.59-1.013-12.721l2.943 1.964.028 1.09c.076 2.09.343 4.183.981 6.171.315.992.722 1.955 1.224 2.878a16.63 16.63 0 0 0 1.731 2.578 19.13 19.13 0 0 0 1.946 2.049c-1.268.858-3.142 1.472-5.359.175-.144-.146-.243-.26-.295-.317m.694.691c.77.37 1.495.52 2.165.52 2.309 0 3.955-1.781 4.478-2.427a14.89 14.89 0 0 0 2.069 2.138c-4.167 2.87-7.349.951-8.712-.232zm7.221 4.342c.291-.459 1.396-2.269 1.85-3.822a11.37 11.37 0 0 0 .857.602l-.459 3.618c-.239-.126-.941-.419-2.249-.398zm1.467.276c.439.102.69.228.77.272 0 .012-.008.028-.024.049-.04.049-.155.138-.502.171-.179.016-.303.073-.395.146l.152-.638zm1.132 1.923a.81.81 0 0 0-.096.106l-.02-.61c.064.02.108.045.143.069.092.069.104.154.104.154h.004c0 .041 0 .159-.136.28zm.152-.516c-.155-.146-.387-.171-.598-.155s-.423.065-.634.045c-.08-.008-.163-.029-.223-.085-.096-.098-.08-.268 0-.374s.219-.159.351-.187.267-.037.395-.077.255-.122.307-.248c.024-.053.028-.114.036-.171l.191-1.52.096-.76.096-.76.048-.382c0-.033.008-.065.012-.093 0-.012 0-.033.004-.045s.016-.004.028 0c.056.033.108.065.163.093a1.45 1.45 0 0 1 .08.049l-.355 4.667m2.181.626c-.024-.037-.056-.073-.096-.106-.104-.089-.132-.183-.136-.236v-.041s.016-.085.108-.159a.48.48 0 0 1 .143-.069l-.02.61zm1.24-.866s-.016.024-.028.037c-.072.077-.187.102-.291.102-.199.004-.399-.037-.594-.049s-.411.016-.566.142l-.343-4.456c-.004-.061-.008-.126.016-.183.044-.098.16-.138.259-.171l.399 3.366c.024.191.056.398.195.524.171.154.423.13.63.183.195.053.471.264.323.5m-.048-.52c-.092-.069-.219-.126-.395-.146-.347-.032-.463-.122-.502-.171-.02-.024-.024-.041-.024-.049.08-.045.331-.171.77-.272l.152.638zm1.316-.915c-1.304-.024-2.014.272-2.249.398l-.459-3.622c.279-.175.566-.374.857-.602.451 1.553 1.559 3.366 1.85 3.826zm-3.72-3.285c-.746-.37-1.611-.972-2.5-1.817.032-.085.032-.187.032-.28 0-.138 0-.268.088-.325.016-.012.032-.016.048-.024a.26.26 0 0 0 .096-.057c.032-.032.052-.069.068-.102a.54.54 0 0 1 .032-.057c.044-.045.112-.049.191-.061.1-.012.207-.02.287-.106a.26.26 0 0 0 .064-.285c-.008-.02-.02-.037-.032-.053s-.016-.02-.016-.024c-.016-.053-.004-.098.032-.146.076-.102.243-.159.355-.155.044 0 .092.008.144.016.128.02.275.041.395-.049.044-.037.076-.077.108-.122s.068-.093.108-.106c.024-.008.06-.008.1-.008.072 0 .163.004.223-.073l.008-.012c.02-.045.032-.049.084-.045l.793.049c.048 0 .1.008.132.028.024.016.044.041.064.069s.052.069.092.093c.088.061.211.065.339.008l.096-.049c.052-.028.104-.053.159-.069.096-.032.251.029.323.122.04.057.04.106.012.15-.008.008-.02.016-.032.024-.032.02-.076.053-.088.106-.028.094.048.175.136.207l.032.012c.036.012.068.024.076.033.032.085-.012.167-.092.289-.052.081-.104.163-.116.256v.008.008c.012.102.116.138.168.154.064.02.215.085.235.203 0 .02 0 .041.004.057 0 .041 0 .085.02.13.012.029.028.053.044.073.008.012.02.024.024.037.008.073.032.13.064.179-.849.789-1.683 1.354-2.396 1.708m2.225-.825a15.11 15.11 0 0 0 2.077-2.134c.514.642 2.165 2.431 4.482 2.431.666 0 1.392-.151 2.157-.516-1.38 1.191-4.562 3.086-8.712.22m11.591-4.785c-.981 2.663-2.153 3.842-2.165 3.854a5.17 5.17 0 0 1-.311.337c-2.205 1.293-4.075.687-5.339-.163a18.97 18.97 0 0 0 1.938-2.041c.654-.801 1.24-1.671 1.73-2.582.498-.923.909-1.886 1.224-2.878.638-1.992.905-4.082.981-6.171l.028-1.122 2.923-1.951c.778 6.131-.116 10.294-1.009 12.721m2.349-13.066l-.865-.191.175-.886 1.727-.382-1.033 1.459h-.004z" class="B"/><path d="M22.886 12.036l.287.024c.052.004.088.016.112.028.04.024.06.065.052.122 0 .049-.008.098-.008.146v.069l.008.028.147.016v-.02s-.028-.029-.028-.057c-.004-.016 0-.041 0-.073 0-.041.008-.077.012-.118.004-.053 0-.089-.016-.114s-.04-.045-.076-.065c.044-.016.08-.037.104-.069s.044-.069.052-.122c.012-.102-.02-.175-.108-.224-.044-.024-.104-.041-.175-.049l-.447-.037-.06.874c.04 0 .08.004.124.008l.028-.374m.024-.394l.315.028c.044 0 .08.012.104.028.048.028.064.073.06.134s-.032.093-.068.114-.084.024-.143.016l-.291-.024.024-.297z" class="B"/><path d="M24.341 12.406c.052-.065.088-.142.108-.236.028-.118.016-.22-.032-.309-.052-.098-.148-.159-.275-.183l-.387-.061-.128.866.355.057c.152.028.271-.016.359-.134zm-.578-.004l.104-.663.227.037c.104.016.171.061.207.13s.04.154.016.26a.29.29 0 0 1-.028.089c-.024.053-.048.094-.076.122-.04.037-.084.061-.132.065-.028 0-.064 0-.104-.008l-.211-.033" class="B"/><path d="M25.178 12.712l-.526-.138.068-.289.49.13.028-.098-.498-.13.064-.26.55.146.032-.102-.678-.175-.199.854.638.163.028-.102m.239.186l.215-.675.215.821.128.049.315-.817c-.04-.012-.076-.028-.116-.045l-.247.667-.211-.821-.148-.045-.259.838.108.032m-4.575-.443l.124-.012-.032-.354.323-.553c-.052 0-.104.008-.155.012l-.243.447-.319-.386-.155.02.423.472.036.35" class="B"/><path d="M22.132 12.404c.148 0 .263-.049.347-.146a.53.53 0 0 0 .12-.321.46.46 0 0 0-.08-.301c-.076-.102-.203-.159-.375-.159-.164 0-.291.057-.375.167a.5.5 0 0 0-.092.305c0 .13.044.24.116.321.084.089.191.13.331.13m-.219-.719a.33.33 0 0 1 .247-.094c.104 0 .183.033.239.098a.33.33 0 0 1 .076.252c0 .098-.032.183-.084.256s-.128.11-.239.11-.195-.033-.251-.098a.38.38 0 0 1-.08-.244c0-.122.028-.211.092-.277M8.746 13.1l-.279-.748-.124.045.323.846.558-.187-.032-.102-.443.146" class="B"/><path d="M9.117 12.174l.271.862.12-.037-.263-.866-.128.037m1.126.182a.38.38 0 0 0-.12-.037c.028-.024.052-.045.064-.069.028-.045.032-.094.02-.146s-.036-.085-.072-.118c-.064-.053-.152-.065-.263-.041l-.415.106.247.87.375-.094c.12-.028.199-.081.239-.159.028-.053.036-.11.024-.167-.016-.069-.048-.118-.1-.146zm-.558.033l-.076-.268.231-.057c.056-.012.1-.02.132-.012.056.008.092.041.108.098s0 .102-.04.134a.34.34 0 0 1-.12.049l-.231.057m.518.24c-.024.049-.072.081-.148.098l-.263.065-.084-.309.247-.061c.052-.012.096-.016.132-.012.064.012.108.049.12.114a.19.19 0 0 1-.008.106" class="B"/><path d="M11.207 12.457l-.566.089-.06-.301.526-.081-.016-.106-.53.085-.056-.268.586-.093-.016-.11-.718.118.187.886.682-.11-.016-.106m.371.041l-.048-.386.299-.028c.052 0 .092 0 .12.008.044.016.072.057.08.114l.02.15.012.069.012.028c.052 0 .104-.008.155-.008v-.02c-.024-.004-.036-.024-.048-.053-.004-.016-.012-.041-.012-.077l-.016-.122a.2.2 0 0 0-.04-.114c-.02-.02-.052-.041-.092-.053a.29.29 0 0 0 .096-.089.21.21 0 0 0 .024-.134c-.008-.102-.06-.171-.159-.203a.47.47 0 0 0-.191-.016l-.463.049.124.894c.04 0 .084-.008.128-.012m.227-.821c.048 0 .084 0 .112.012.056.02.084.061.092.126s-.008.102-.044.126-.084.041-.144.045l-.303.028-.04-.309.327-.028z" class="B"/><path d="M12.523 11.63l.036.797h.132l-.028-.801h.339v-.11l-.825.012a.87.87 0 0 0 .008.106l.339-.012m.545.804l.108-.268.387.016.088.277c.048 0 .096.008.144.012l-.327-.931c-.052 0-.104-.004-.155-.008l-.371.894h.132m.307-.752l.144.407-.307-.012.164-.394zm1.298.689a.58.58 0 0 0 .092-.252.46.46 0 0 0-.068-.321c-.068-.098-.175-.159-.315-.175l-.419-.045-.052.903.387.045c.168.02.291-.033.375-.155zm-.626.02l.048-.695.247.028c.112.012.191.057.235.126s.06.159.048.272c-.004.028-.008.061-.02.093-.016.057-.044.102-.072.13a.27.27 0 0 1-.136.077.5.5 0 0 1-.112 0l-.235-.028m4.622 15.819h-.016v-.081h-.128v-.224h.243v-.585h-.191-.052v-.171c0-.045-.016-.085-.052-.11s-.084-.024-.124 0a.12.12 0 0 0-.06.11v.175h-.411v-.175c0-.045-.024-.085-.06-.106s-.088-.02-.124 0-.056.065-.056.106v.175h-.407v-.175c0-.045-.024-.085-.06-.106s-.088-.02-.124 0-.056.065-.052.106v.175h-.243v.585h.243v.224h-.163v.081h-.016l-.163-.207h-.614l.279.419.343.228 1.077.008h.004l1.077-.008.343-.228.279-.419h-.614l-.164.207.004-.004zm-.443-.756h.411v.309h-.411v-.309zm.068.447v.224h-.156v.094h-.151v-.094h-.104v-.224h.411zm-.738-.447h.044c.092 0 .14-.032.163-.049.024.016.068.049.164.049h.044v.309h-.415v-.309zm.088.447v.224h-.14v.094h-.152v-.094h-.12v-.224h.407.004zm-.754-.138v-.309h.411v.309H16.9zm2.297.378l-.128.187-.279.179-1.041.008-1.041-.008-.275-.179-.128-.187h.291l.159.207h.219v-.081h.247v.089l.423.008v-.098h.207v.098l.423-.008v-.089h.247v.085h.219l.16-.211h.291.004zm-.518 3.975h-.016v-.081h-.128v-.224h.243v-.585h-.191-.052v-.171c0-.045-.016-.085-.052-.11s-.084-.024-.124 0a.12.12 0 0 0-.06.11v.175h-.411v-.175c0-.045-.024-.085-.06-.106s-.088-.02-.124 0-.056.065-.056.106v.175h-.407v-.175c0-.045-.024-.085-.06-.106s-.088-.02-.124 0-.056.065-.052.106v.175h-.243v.585h.243v.224h-.163v.081h-.016l-.163-.207h-.614l.279.419.343.228 1.077.008h.004l1.077-.008.343-.228.279-.419h-.614l-.164.207.004-.004zm-.443-.756h.411v.309h-.411v-.309zm.068.447v.224h-.156v.094h-.151v-.094h-.104v-.224h.411zm-.738-.447h.044c.092 0 .14-.033.163-.049.024.016.068.049.164.049h.044v.309h-.415v-.309zm.088.447v.224h-.14v.094h-.152v-.094h-.12v-.224h.407.004zm-.754-.138v-.309h.411v.309H16.9zm2.297.378l-.128.187-.279.179-1.041.008-1.041-.008-.275-.179-.128-.187h.291l.159.207h.219v-.081h.247v.089l.423.008v-.097h.207v.097l.423-.008v-.089h.247v.085h.219l.16-.211h.291.004z" class="B"/><path d="M65.979 36.125H39.191v2.789h26.787v-2.789z" fill="#fec707"/><path d="M79.36 36.125H65.979v2.789H79.36v-2.789z" fill="#223a7a"/><path d="M92.741 36.125H79.359v2.789h13.382v-2.789z" fill="#d80e28"/><path d="M50.942 3.656L45.846 15.32h-1.703L39.048 3.656h2.157l3.796 9.017 3.812-9.017h2.125.004zm3.015-.187v2.037h-2.241V3.469h2.241zm-2.125 3.756h2.029v8.09h-2.029v-8.09zm11.847.001v7.346c0 1.268-.343 2.228-1.029 2.878s-1.703.976-3.042.976a7.21 7.21 0 0 1-1.998-.272c-.638-.183-1.196-.439-1.671-.768l.566-1.455c.985.606 2.002.911 3.05.911 1.408 0 2.109-.707 2.109-2.118v-1.057c-.239.451-.582.801-1.037 1.049s-.973.374-1.559.374c-.694 0-1.308-.167-1.842-.504s-.957-.809-1.256-1.415-.455-1.309-.455-2.102.148-1.496.447-2.11a3.38 3.38 0 0 1 1.256-1.423c.542-.337 1.156-.504 1.85-.504a3.21 3.21 0 0 1 1.559.374 2.48 2.48 0 0 1 1.037 1.049V7.23h2.014v-.004zm-2.556 5.61c.363-.431.542-1.02.542-1.768s-.179-1.358-.542-1.789-.869-.646-1.519-.646-1.14.215-1.511.646-.55 1.025-.55 1.789.183 1.325.55 1.76.869.655 1.511.655 1.156-.216 1.519-.646zM67.9 3.469v2.037h-2.241V3.469H67.9zm-2.129 3.756h2.03v8.09h-2.03v-8.09zm4.123-3.569h2.029V15.32h-2.029V3.656zM79.906 7.86c.542.553.813 1.403.813 2.549v4.915h-1.93v-1.24a2.13 2.13 0 0 1-.869 1.008c-.394.24-.853.366-1.372.366a3.17 3.17 0 0 1-1.444-.329 2.57 2.57 0 0 1-1.021-.911 2.35 2.35 0 0 1-.375-1.289c0-.598.148-1.065.447-1.407s.782-.59 1.452-.744 1.595-.232 2.775-.232h.407v-.382c0-.553-.116-.947-.351-1.191s-.618-.366-1.16-.366c-.423 0-.861.073-1.324.224a6.7 6.7 0 0 0-1.356.622l-.566-1.423c.443-.289.981-.524 1.607-.711s1.224-.281 1.786-.281c1.113 0 1.942.276 2.484.829l-.004-.008zm-1.631 5.549c.343-.37.51-.846.51-1.431v-.345h-.291c-.726 0-1.288.032-1.687.098s-.686.183-.861.346-.259.39-.259.679c0 .354.12.642.359.87s.542.338.909.338c.542 0 .981-.183 1.324-.553h-.004zm12.166-9.753V15.32h-2.014v-1.309c-.239.451-.582.805-1.029 1.057s-.961.382-1.535.382a3.23 3.23 0 0 1-1.826-.529c-.534-.354-.953-.854-1.248-1.496s-.447-1.386-.447-2.224.148-1.573.447-2.199.71-1.114 1.24-1.455 1.14-.512 1.834-.512c.574 0 1.081.122 1.527.366s.785.585 1.021 1.024V3.66h2.03v-.004zm-2.54 9.513c.351-.451.526-1.098.526-1.935s-.175-1.48-.526-1.927-.845-.671-1.483-.671-1.152.22-1.511.663-.534 1.077-.534 1.903.179 1.488.534 1.951.853.695 1.491.695 1.148-.228 1.499-.679h.004zm6.118 1.773A3.51 3.51 0 0 1 92.6 13.47c-.334-.639-.502-1.382-.502-2.232s.167-1.59.502-2.224.809-1.122 1.419-1.464 1.324-.512 2.133-.512 1.523.171 2.133.512a3.48 3.48 0 0 1 1.412 1.464c.331.635.494 1.378.494 2.224s-.163 1.594-.494 2.232a3.49 3.49 0 0 1-1.412 1.472c-.61.342-1.324.512-2.133.512s-1.523-.171-2.133-.512zm3.628-1.756c.347-.439.518-1.094.518-1.951s-.171-1.496-.518-1.943-.845-.671-1.491-.671-1.148.224-1.499.671-.526 1.094-.526 1.943.171 1.512.518 1.951.845.663 1.491.663 1.164-.219 1.511-.663h-.004zM41.836 31.083c-.77-.244-1.42-.585-1.946-1.025l.698-1.557a5.65 5.65 0 0 0 1.747.943c.61.199 1.272.297 1.99.297.789 0 1.399-.142 1.826-.423s.642-.675.642-1.183c0-.439-.199-.776-.594-1.008s-1.053-.451-1.97-.663c-.953-.211-1.727-.451-2.321-.728s-1.045-.63-1.348-1.057-.455-.976-.455-1.638.184-1.297.55-1.838.885-.963 1.559-1.264 1.443-.455 2.321-.455a7.03 7.03 0 0 1 2.289.374c.726.248 1.32.59 1.786 1.016l-.698 1.557c-1.017-.829-2.141-1.24-3.377-1.24-.738 0-1.316.15-1.746.455s-.642.724-.642 1.264a1.16 1.16 0 0 0 .566 1.041c.379.24 1.021.468 1.93.679.961.22 1.747.468 2.345.736s1.061.614 1.38 1.033.479.947.479 1.59c0 .695-.179 1.305-.542 1.829s-.889.927-1.575 1.207-1.495.423-2.424.423c-.877 0-1.699-.122-2.468-.366zm16.049-7.88v8.09h-1.978v-1.24a2.56 2.56 0 0 1-1.005 1.016c-.423.235-.897.358-1.428.358-1.946 0-2.923-1.114-2.923-3.342v-4.883h2.029v4.899c0 .573.116 1 .343 1.273s.582.415 1.073.415c.562 0 1.013-.191 1.356-.569s.51-.886.51-1.512v-4.5h2.029l-.008-.004zm8.496.334c.534.354.953.854 1.248 1.496s.447 1.386.447 2.224-.147 1.573-.447 2.199-.71 1.114-1.24 1.455-1.14.512-1.834.512c-.562 0-1.065-.122-1.511-.366a2.49 2.49 0 0 1-1.021-1.008v4.22h-2.029v-11.07h1.998v1.224a2.53 2.53 0 0 1 1.029-1.049c.447-.248.96-.374 1.534-.374a3.23 3.23 0 0 1 1.826.529v.008zm-.869 5.618c.359-.447.534-1.077.534-1.895s-.179-1.488-.534-1.951-.853-.695-1.491-.695-1.148.228-1.499.679-.526 1.098-.526 1.935.175 1.468.526 1.919.853.679 1.499.679 1.136-.224 1.491-.671zm11.202-1.537h-5.403c.064.752.287 1.309.666 1.671s.921.545 1.623.545c.877 0 1.679-.289 2.4-.862l.582 1.423c-.367.309-.829.557-1.388.744a5.25 5.25 0 0 1-1.679.281c-1.3 0-2.325-.374-3.074-1.126s-1.128-1.777-1.128-3.077c0-.829.163-1.561.486-2.199a3.58 3.58 0 0 1 1.372-1.488c.59-.354 1.256-.529 2.006-.529 1.093 0 1.954.358 2.588 1.077s.949 1.703.949 2.964v.577zm-4.797-2.63c-.331.354-.534.862-.61 1.521h3.668c-.02-.671-.183-1.183-.487-1.533s-.726-.52-1.264-.52-.977.175-1.308.529v.004zm11.675-.256l-1.184.118c-1.344.142-2.014.838-2.014 2.086v4.37h-2.029v-8.09h1.93v1.423c.411-.972 1.26-1.5 2.548-1.59L83.46 23l.132 1.736v-.004zm3.864-3.347h-3.732v-1.752h9.558v1.752H89.55v9.912h-2.093v-9.912zm12.3 3.347l-1.184.118c-1.344.142-2.014.838-2.014 2.086v4.37h-2.03v-8.09h1.93v1.423c.411-.972 1.26-1.5 2.548-1.59l.618-.049.132 1.736v-.004zm6.883-.895c.542.553.813 1.403.813 2.549v4.915h-1.93v-1.24c-.183.431-.474.768-.869 1.008s-.853.366-1.372.366-1.012-.11-1.443-.329-.774-.524-1.021-.911a2.35 2.35 0 0 1-.375-1.289c0-.598.148-1.065.447-1.407s.782-.589 1.451-.744 1.595-.232 2.776-.232h.406v-.382c0-.553-.115-.947-.351-1.191s-.618-.366-1.16-.366c-.423 0-.861.073-1.324.224a6.75 6.75 0 0 0-1.355.622l-.567-1.423c.443-.289.981-.524 1.607-.711s1.224-.281 1.787-.281c1.112 0 1.941.277 2.484.829l-.004-.008zm-1.631 5.553c.343-.37.51-.846.51-1.431v-.345h-.291c-.725 0-1.288.032-1.686.098s-.686.183-.862.345-.259.39-.259.679c0 .354.12.642.359.87s.542.337.909.337c.542 0 .981-.183 1.324-.553h-.004zm11.236-5.557c.466.553.697 1.386.697 2.5v4.964h-2.029v-4.85c0-.63-.116-1.085-.351-1.374s-.598-.431-1.097-.431c-.582 0-1.052.187-1.403.561s-.527.878-.527 1.504v4.582h-2.029v-8.09h1.982v1.207a2.76 2.76 0 0 1 1.088-1.041c.454-.24.969-.366 1.543-.366.953 0 1.663.276 2.126.829v.004zm3.741 7.33c-.591-.175-1.089-.431-1.5-.76l.567-1.439c.845.63 1.81.943 2.906.943.467 0 .822-.077 1.065-.232a.74.74 0 0 0 .367-.663c0-.244-.084-.431-.251-.561s-.467-.252-.902-.366l-1.299-.297c-.738-.167-1.284-.435-1.639-.809s-.535-.862-.535-1.455a2.2 2.2 0 0 1 .415-1.317c.275-.382.658-.675 1.153-.886s1.064-.313 1.71-.313a5.16 5.16 0 0 1 1.631.264c.526.174.989.423 1.388.744l-.567 1.407c-.821-.606-1.642-.911-2.468-.911-.442 0-.789.081-1.037.248s-.374.398-.374.695c0 .22.079.402.235.545s.407.252.753.329l1.348.313c.79.175 1.368.455 1.735.837s.55.878.55 1.496c0 .752-.299 1.346-.893 1.789s-1.4.663-2.417.663a6.79 6.79 0 0 1-1.937-.264h-.004zm13.273-7.626c.534.354.953.854 1.248 1.496s.447 1.386.447 2.224-.148 1.573-.447 2.199-.71 1.114-1.24 1.455-1.141.512-1.834.512c-.563 0-1.065-.122-1.512-.366a2.49 2.49 0 0 1-1.02-1.008v4.22h-2.03v-11.07h1.998v1.224a2.53 2.53 0 0 1 1.029-1.049c.446-.248.961-.374 1.535-.374a3.23 3.23 0 0 1 1.826.529v.008zm-.865 5.618c.359-.447.534-1.077.534-1.895s-.179-1.488-.534-1.951-.854-.695-1.492-.695-1.148.228-1.499.679-.526 1.098-.526 1.935.175 1.468.526 1.919.853.679 1.499.679 1.137-.224 1.492-.671zm5.717 1.764c-.61-.341-1.084-.833-1.419-1.472s-.503-1.382-.503-2.232.168-1.59.503-2.224.809-1.122 1.419-1.464 1.324-.512 2.134-.512 1.523.171 2.133.512a3.48 3.48 0 0 1 1.411 1.464c.331.635.495 1.378.495 2.224s-.164 1.594-.495 2.232-.801 1.13-1.411 1.472-1.324.512-2.133.512-1.524-.171-2.134-.512zm3.629-1.752c.347-.439.518-1.094.518-1.951s-.171-1.496-.518-1.943-.845-.671-1.491-.671-1.149.224-1.5.671-.526 1.094-.526 1.943.172 1.512.518 1.951.846.663 1.492.663 1.164-.22 1.511-.663h-.004zm9.446-4.435l-1.184.118c-1.344.142-2.013.838-2.013 2.086v4.37h-2.03v-8.09h1.93v1.423c.411-.972 1.26-1.5 2.548-1.59l.618-.049.131 1.736v-.004zm5.795 5.091l-.096 1.541-.893.049c-1.112 0-1.938-.26-2.468-.785s-.794-1.305-.794-2.342v-3.525h-1.527v-1.557h1.527v-2.415h2.03v2.415h2.093v1.557h-2.093v3.492c0 1.081.49 1.622 1.475 1.622a5.99 5.99 0 0 0 .746-.049v-.004zm8.146-2.205h-5.403c.064.752.287 1.309.666 1.671s.921.545 1.623.545c.877 0 1.679-.289 2.4-.862l.583 1.423c-.367.309-.83.557-1.388.744a5.25 5.25 0 0 1-1.679.281c-1.3 0-2.324-.374-3.074-1.126s-1.128-1.777-1.128-3.077c0-.829.163-1.561.486-2.199a3.58 3.58 0 0 1 1.372-1.488c.59-.354 1.256-.529 2.005-.529 1.093 0 1.954.358 2.588 1.077s.949 1.703.949 2.964v.577zm-4.797-2.63c-.331.354-.534.862-.61 1.521h3.669c-.02-.671-.184-1.183-.487-1.533s-.725-.52-1.264-.52-.977.175-1.308.529v.004z" fill="#d7723d"/></g></svg>